<?xml version="1.0" standalone="no"?>
<!DOCTYPE svg PUBLIC "-//W3C//DTD SVG 1.1//EN" "http://www.w3.org/Graphics/SVG/1.1/DTD/svg11.dtd" >
<svg xmlns="http://www.w3.org/2000/svg" xmlns:xlink="http://www.w3.org/1999/xlink" version="1.1">
<metadata>
Created by FontForge 20170731 at Sun Apr 10 10:10:53 2022
 By Aleksey,,,
</metadata>
<defs>
<font id="SourceHanSerifCN-Medium-Alphabetic" horiz-adv-x="2048" vert-adv-y="2048" >
  <font-face 
    font-family="SourceHanSerifCN-Medium-Alphabetic"
    font-weight="500"
    font-stretch="normal"
    units-per-em="2048"
    panose-1="2 0 6 3 0 0 0 0 0 0"
    ascent="1638"
    descent="-410"
    bbox="6 -561 2073 1718"
    underline-thickness="102"
    underline-position="-307"
    unicode-range="U+FF21-FF5A"
  />
<missing-glyph horiz-adv-x="748" 
d="M68 0v1365h544v-1365h-544zM136 68h408v1229h-408v-1229z" />
    <glyph glyph-name=".notdef" horiz-adv-x="748" 
d="M68 0v1365h544v-1365h-544zM136 68h408v1229h-408v-1229z" />
    <glyph glyph-name=".null" horiz-adv-x="0" vert-adv-y="0" 
 />
    <glyph glyph-name="nonmarkingreturn" horiz-adv-x="682" 
 />
    <glyph glyph-name="uniEA48" unicode="&#xff21;" 
d="M686 594h549l-283 747zM1647 100l215 -16v-84h-652v84l213 16l-155 406h-613l-143 -404l213 -18v-84h-530v84l217 18l530 1430h150z" />
    <glyph glyph-name="uniEA49" unicode="&#xff22;" 
d="M811 88h291q203 0 310.5 86.5t107.5 247.5q0 168 -107.5 253t-333.5 85h-272q0 -455 4 -672zM1061 1444h-250q-4 -197 -4 -602h248q187 0 289 87t102 236q0 64 -19 113t-62 87.5t-119.5 58.5t-184.5 20zM371 1532h747q533 0 533 -356q0 -132 -91 -228.5t-286 -132.5
q461 -46 461 -397q0 -68 -19 -127t-65.5 -113.5t-118 -93t-183 -61.5t-253.5 -23h-725v84l221 16q4 201 4 613v102q0 416 -4 619l-221 16v82z" />
    <glyph glyph-name="uniEA4A" unicode="&#xff23;" 
d="M1571 428h108l-8 -332q-217 -133 -489 -133q-184 0 -338.5 54t-267.5 155t-176.5 254t-63.5 342q0 246 106 429t296.5 278.5t441.5 95.5q140 0 248.5 -29.5t218.5 -91.5l8 -346h-109l-55 309q-129 70 -299 70q-292 0 -462.5 -187.5t-170.5 -527.5q0 -341 172.5 -529
t458.5 -188q181 0 323 74z" />
    <glyph glyph-name="uniEA4B" unicode="&#xff24;" 
d="M774 88h139q305 0 461 172t156 506q0 678 -596 678h-160q-2 -205 -2 -623v-108q0 -418 2 -625zM334 1532h639q366 0 574 -200.5t208 -563.5q0 -356 -213.5 -562t-587.5 -206h-620v84l223 16q4 201 4 613v108q0 410 -4 613l-223 16v82z" />
    <glyph glyph-name="uniEA4C" unicode="&#xff25;" 
d="M1561 367h118l-20 -367h-1247v84l204 16q5 254 5 613v108q0 357 -5 613l-204 16v82h1208l20 -369h-120l-43 283h-639q-4 -199 -4 -621h493l27 201h84v-487h-84l-25 198h-495q0 -444 4 -651h680z" />
    <glyph glyph-name="uniEA4D" unicode="&#xff26;" 
d="M1503 1446h-653q-4 -199 -4 -621h485l27 201h86v-498h-86l-27 209h-485q0 -436 4 -635l227 -18v-84h-653v84l207 16q4 201 4 613v108q0 410 -4 613l-207 16v82h1223l18 -369h-119z" />
    <glyph glyph-name="uniEA4E" unicode="&#xff27;" 
d="M1839 762v-80l-180 -18q-4 -270 -4 -455v-107q-128 -78 -252.5 -108.5t-286.5 -30.5q-235 0 -414 97.5t-277.5 280t-98.5 425.5q0 242 97 424t279 281.5t426 99.5q287 0 494 -123l8 -340h-110l-56 307q-132 70 -311 70q-271 0 -435.5 -191t-164.5 -528
q0 -336 162.5 -526.5t427.5 -190.5q171 0 303 62v104q0 223 -6 444l-254 23v80h653z" />
    <glyph glyph-name="uniEA4F" unicode="&#xff28;" 
d="M1868 1450l-221 -16q-2 -203 -2 -613v-108q0 -410 2 -613l221 -16v-84h-660v84l222 16q4 199 4 654h-820q0 -455 4 -654l224 -16v-84h-662v84l221 16q2 201 2 613v108q0 410 -2 613l-221 16v82h662v-82l-224 -16q-4 -195 -4 -588h820q0 393 -4 588l-222 16v82h660v-82z
" />
    <glyph glyph-name="uniEA50" unicode="&#xff29;" 
d="M1341 1450l-206 -16q-5 -254 -5 -613v-108q0 -359 5 -613l206 -16v-84h-632v84l204 16q5 251 5 613v108q0 359 -5 613l-204 16v82h632v-82z" />
    <glyph glyph-name="uniEA51" unicode="&#xff2a;" 
d="M1677 1532v-82l-241 -16q-2 -199 -2 -609v-209q0 -169 -35 -303q-36 -158 -171.5 -254t-369.5 -96q-200 0 -317.5 78t-145.5 229q9 33 33.5 52.5t54.5 19.5q42 0 66 -25.5t41 -89.5l45 -141q73 -33 188 -33q192 0 294 107t102 325q0 154 -7 947l-292 18v82h757z" />
    <glyph glyph-name="uniEA52" unicode="&#xff2b;" 
d="M1640 100l209 -16v-84h-630v84l182 14l-422 711l-254 -270q0 -275 2 -439l207 -16v-84h-645v84l221 16q4 201 4 613v108q0 410 -4 613l-221 16v82h645v-82l-207 -16q-2 -201 -2 -613v-168l729 779l-205 18v82h543v-82l-227 -20l-449 -476z" />
    <glyph glyph-name="uniEA53" unicode="&#xff2c;" 
d="M1597 410h115l-22 -410h-1282v84l221 16q4 201 4 613v108q0 410 -4 613l-221 16v82h684v-82l-242 -16q-4 -203 -4 -613v-108q0 -418 4 -625h696z" />
    <glyph glyph-name="uniEA54" unicode="&#xff2d;" 
d="M1741 100l235 -16v-84h-680v84l224 16q6 301 6 613v555l-520 -1268h-82l-527 1255l-2 -1151l230 -20v-84h-566v84l238 20l4 1328l-213 18v82h418l524 -1231l506 1231h430v-82l-225 -16q-4 -201 -4 -613v-108q0 -410 4 -613z" />
    <glyph glyph-name="uniEA55" unicode="&#xff2e;" 
d="M1870 1532v-82l-240 -18v-1444h-121l-981 1294v-1180l271 -18v-84h-604v84l235 18v1311l-14 19l-221 16v84h415l924 -1225v1125l-270 18v82h606z" />
    <glyph glyph-name="uniEA56" unicode="&#xff2f;" 
d="M485 764q0 -209 61.5 -368.5t184.5 -252t293 -92.5t293 92.5t184.5 252t61.5 368.5q0 211 -61.5 372t-184.5 254t-293 93t-293 -93t-184.5 -254t-61.5 -372zM1024 1571q163 0 303 -55.5t242.5 -157t160.5 -254.5t58 -340q0 -185 -58 -337t-160.5 -253t-242.5 -156
t-303 -55t-303 55t-242.5 156t-160.5 253t-58 337q0 187 58.5 340t161 254.5t242 157t302.5 55.5z" />
    <glyph glyph-name="uniEA57" unicode="&#xff30;" 
d="M1112 1444h-264q-4 -205 -4 -623v-121h225q223 0 331.5 100t108.5 283q0 361 -397 361zM1069 614h-225q0 -334 4 -512l250 -18v-84h-692v84l221 16q4 134 4 613v108q0 477 -4 611l-221 18v82h706q604 0 604 -449q0 -106 -36.5 -190t-112 -147.5t-202 -97.5t-296.5 -34z
" />
    <glyph glyph-name="uniEA58" unicode="&#xff31;" 
d="M485 764q0 -209 61.5 -368.5t184.5 -252t293 -92.5t293 92.5t184.5 252t61.5 368.5q0 211 -61.5 372t-184.5 254t-293 93t-293 -93t-184.5 -254t-61.5 -372zM1737 -285l35 -73q-150 -99 -332 -99q-122 0 -218.5 35t-156.5 94.5t-92.5 134.5t-34.5 160q-148 14 -272 74.5
t-214.5 160.5t-141 244.5t-50.5 317.5q0 187 58.5 340t161 254.5t242 157t302.5 55.5t303 -55.5t242.5 -157t160.5 -254.5t58 -340q0 -167 -47.5 -307t-132 -240t-201.5 -163t-256 -83q13 -150 97.5 -234.5t219.5 -84.5q146 0 269 63z" />
    <glyph glyph-name="uniEA59" unicode="&#xff32;" 
d="M766 795h274q168 0 264.5 92.5t96.5 238.5q0 318 -377 318h-254q-4 -201 -4 -649zM1620 100l240 -16v-84q-129 -25 -209 -25q-121 0 -178.5 38t-79.5 126l-123 336q-16 46 -27 72.5t-27.5 57.5t-34 47.5t-43 31.5t-58.5 21t-76 6h-238q0 -414 4 -611l242 -16v-84h-682v84
l221 16q2 100 2 613v108q0 511 -2 613l-221 16v82h751q257 0 395 -100t138 -291q0 -143 -104 -250t-302 -139q56 -10 98 -29t69.5 -41.5t49.5 -59.5t35.5 -72t30.5 -91z" />
    <glyph glyph-name="uniEA5A" unicode="&#xff33;" 
d="M979 907l203 -61q119 -36 201.5 -83t129 -104.5t66.5 -119.5t20 -138q0 -208 -159 -323t-443 -115q-299 0 -526 139l14 314h123l37 -289q156 -72 352 -72q187 0 296.5 76.5t109.5 212.5q0 111 -69.5 183.5t-227.5 123.5l-193 56q-395 116 -395 440q0 137 74.5 234
t200 143.5t290.5 46.5q138 0 239.5 -29t201.5 -92l-11 -299h-124l-35 268q-121 62 -264 62q-172 0 -277.5 -74t-105.5 -209q0 -211 272 -291z" />
    <glyph glyph-name="uniEA5B" unicode="&#xff34;" 
d="M1561 1446h-426q-5 -256 -5 -625v-108q0 -359 5 -613l262 -16v-84h-746v84l262 18q5 249 5 611v108q0 366 -5 625h-426l-38 -313h-121l12 399h1368l12 -399h-118z" />
    <glyph glyph-name="uniEA5C" unicode="&#xff35;" 
d="M1841 1532v-82l-201 -16v-803q0 -333 -155.5 -500.5t-444.5 -167.5q-114 0 -206.5 21.5t-169 70t-128 124t-80 186t-28.5 253.5v207q0 406 -2 609l-221 16v82h672v-82l-234 -16q-2 -199 -2 -609v-209q0 -276 114.5 -400t334.5 -124q232 0 341 131t109 422v789l-211 16v82
h512z" />
    <glyph glyph-name="uniEA5D" unicode="&#xff36;" 
d="M1888 1532v-82l-213 -20l-542 -1442h-144l-561 1446l-207 16v82h674v-82l-238 -16l463 -1229l459 1225l-219 20v82h528z" />
    <glyph glyph-name="uniEA5E" unicode="&#xff37;" 
d="M2073 1532v-82l-191 -20l-369 -1442h-137l-344 1245l-338 -1245h-135l-389 1448l-164 14v82h582v-82l-193 -16l293 -1178l313 1176l-206 18v82h602v-82l-209 -18l313 -1178l287 1176l-191 20v82h476z" />
    <glyph glyph-name="uniEA5F" unicode="&#xff38;" 
d="M1597 100l218 -16v-84h-629v84l190 16l-385 564l-418 -566l215 -14v-84h-555v84l220 14l489 637l-477 699l-193 16v82h617v-82l-203 -16l379 -553l399 553l-215 16v82h535v-82l-201 -16l-469 -625z" />
    <glyph glyph-name="uniEA60" unicode="&#xff39;" 
d="M1606 1430l-463 -820v-75q0 -281 4 -435l258 -16v-84h-737v84l258 18q4 152 4 433v77l-463 822l-207 16v82h676v-82l-223 -16l395 -717l397 713l-223 20v82h553v-82z" />
    <glyph glyph-name="uniEA61" unicode="&#xff3a;" 
d="M1561 399h110l-20 -399h-1250v68l996 1376h-811l-54 -311h-110l20 399h1205v-66l-998 -1378h856z" />
    <glyph glyph-name="uniEA68" unicode="&#xff41;" 
d="M1290 219v393q-174 -35 -276 -61q-171 -44 -249.5 -105.5t-78.5 -162.5q0 -94 65 -146.5t183 -52.5q172 0 356 135zM1671 115l39 -33q-67 -119 -209 -119q-95 0 -144 48t-63 139q-101 -95 -211.5 -141t-246.5 -46q-159 0 -253 74.5t-94 208.5q0 66 23.5 118t78.5 99.5
t151.5 85.5t236.5 67q196 42 311 62v70q0 171 -66.5 235t-228.5 64q-118 0 -237 -46l-27 -98q-17 -66 -45 -97.5t-70 -31.5q-37 0 -63 18.5t-35 53.5q32 130 173.5 205t357.5 75q236 0 343 -92t107 -301v-508q0 -88 20 -120.5t64 -32.5q35 0 88 43z" />
    <glyph glyph-name="uniEA69" unicode="&#xff42;" 
d="M754 877v-678q135 -117 309 -117q163 0 265 126.5t102 342.5q0 219 -100.5 338t-270.5 119q-160 0 -305 -131zM752 1327v-377q159 176 397 176q107 0 199 -38.5t160.5 -110t107.5 -181t39 -243.5q0 -273 -150 -431.5t-385 -158.5q-221 0 -370 162l-19 -139l-403 14v76
l211 20q4 234 4 387v1049l-217 12v70l395 57l37 -20z" />
    <glyph glyph-name="uniEA6A" unicode="&#xff43;" 
d="M1522 238l53 -50q-164 -225 -496 -225q-263 0 -430.5 159.5t-167.5 424.5q0 176 82 308t225 201.5t326 69.5q173 0 298 -75t161 -205q-27 -82 -98 -82q-44 0 -72 30t-45 99l-31 123q-78 31 -188 31q-183 0 -307.5 -128t-124.5 -348q0 -213 126 -343t320 -130
q226 0 369 140z" />
    <glyph glyph-name="uniEA6B" unicode="&#xff44;" 
d="M1296 217v666q-135 127 -301 127q-167 0 -272 -127.5t-105 -343.5q0 -218 101 -337.5t270 -119.5q166 0 307 135zM1505 96l215 -20v-76l-413 -14l-9 149q-158 -172 -397 -172q-107 0 -199 38.5t-160.5 110.5t-107.5 181t-39 244t42.5 247t116.5 186.5t172 115t210 40.5
q219 0 362 -165v571l-217 12v70l398 57l32 -20l-6 -318v-1237z" />
    <glyph glyph-name="uniEA6C" unicode="&#xff45;" 
d="M702 629h590q49 0 67.5 25t18.5 91q0 133 -82.5 217.5t-224.5 84.5q-156 0 -256 -110t-113 -308zM1503 231l49 -49q-70 -108 -194.5 -163.5t-280.5 -55.5q-123 0 -231 37.5t-192 109t-132.5 185.5t-48.5 256q0 133 50 244t134 182t192.5 110t227.5 39q121 0 218 -35.5
t158 -97.5t93.5 -143.5t32.5 -175.5q0 -68 -12 -127h-867q4 -110 42 -198t100 -141.5t138 -81.5t159 -28q228 0 364 133z" />
    <glyph glyph-name="uniEA6D" unicode="&#xff46;" 
d="M633 1073l227 19q15 191 67.5 311t159.5 203q74 59 175.5 85.5t205.5 26.5q91 0 152 -26t76 -76q0 -47 -29 -75t-78 -28q-41 0 -77 20.5t-97 72.5l-41 34q-97 -28 -164 -92q-71 -71 -103 -171.5t-36 -286.5h410v-119l-410 20v-508q0 -133 4 -387l264 -20v-76h-675v76
l192 18q4 258 4 389v512h-227v78z" />
    <glyph glyph-name="uniEA6E" unicode="&#xff47;" 
d="M999 459q117 0 186.5 81.5t69.5 215.5t-70.5 214.5t-185.5 80.5q-117 0 -186.5 -80t-69.5 -215q0 -134 69 -215.5t187 -81.5zM1264 -31h-361q-108 0 -188 25q-49 -44 -71.5 -81.5t-22.5 -92.5q0 -110 105.5 -170t307.5 -60q210 0 322 66t112 172q0 66 -46 103.5
t-158 37.5zM1655 1094v-127l-279 10q74 -92 74 -221q0 -166 -118.5 -270.5t-332.5 -104.5q-139 0 -237 45q-42 -41 -58 -69t-16 -64q0 -62 49.5 -95.5t165.5 -33.5h342q406 0 406 -279q0 -80 -41.5 -149.5t-120.5 -123.5t-205 -85t-283 -31q-264 0 -397 79.5t-133 207.5
q0 153 180 240q-108 63 -108 188q0 70 39.5 129.5t124.5 116.5q-77 51 -117.5 128t-40.5 171q0 164 117.5 267t332.5 103q196 0 316 -90l305 82z" />
    <glyph glyph-name="uniEA6F" unicode="&#xff48;" 
d="M1561 92l180 -16v-76h-576v76l176 16q5 293 5 391v213q0 159 -54.5 226t-175.5 67q-195 0 -383 -164v-342q0 -274 2 -391l178 -16v-76h-577v76l182 18q4 234 4 389v1049l-219 12v70l395 57l37 -20l-6 -324v-424q122 126 235.5 174.5t245.5 48.5q346 0 346 -399v-244
q0 -99 5 -391z" />
    <glyph glyph-name="uniEA70" unicode="&#xff49;" 
d="M1096 1409q-56 0 -98 38.5t-42 96.5q0 56 42 93.5t98 37.5q59 0 98 -37t39 -94q0 -59 -39 -97t-98 -38zM1214 96l224 -20v-76h-664v76l221 20q4 238 4 387v111q0 200 -6 369l-211 6v69l404 76l28 -16l-4 -295v-320q0 -149 4 -387z" />
    <glyph glyph-name="uniEA71" unicode="&#xff4a;" 
d="M1186 1409q-56 0 -96.5 38.5t-40.5 96.5q0 56 41 93.5t96 37.5q58 0 98.5 -37.5t40.5 -93.5q0 -59 -40.5 -97t-98.5 -38zM872 1038l406 76l29 -16l-7 -295v-543q0 -280 -25 -416.5t-97 -226.5q-140 -178 -408 -178q-158 0 -273.5 84.5t-115.5 200.5q22 79 106 79
q93 0 117 -165l25 -97q56 -20 114 -20q86 0 160.5 41.5t120.5 122.5q39 65 53.5 177t14.5 290v442q0 131 -9 369l-211 6v69z" />
    <glyph glyph-name="uniEA72" unicode="&#xff4b;" 
d="M1507 96l217 -20v-76h-372l-379 592l-191 -176q0 -224 2 -324l181 -16v-76h-580v76l182 18q4 234 4 389v1049l-219 12v70l402 57l34 -20l-6 -324v-811l512 483l-198 17v74h557v-74l-238 -17l-309 -286z" />
    <glyph glyph-name="uniEA73" unicode="&#xff4c;" 
d="M1135 94l190 -18v-76h-602v76l190 18q5 323 5 389v1049l-218 12v70l400 57l37 -20l-7 -324v-844q0 -67 5 -389z" />
    <glyph glyph-name="uniEA74" unicode="&#xff4d;" 
d="M1843 92l170 -16v-76h-559v76l168 18q4 234 4 389v228q0 278 -205 278q-145 0 -284 -151q6 -44 6 -95v-260q0 -155 4 -389l168 -18v-76h-555v76l168 18q4 234 4 389v238q0 268 -207 268q-72 0 -144 -40.5t-132 -114.5v-351q0 -157 4 -391l170 -16v-76h-553v76l163 16
q5 297 5 391v125q0 199 -9 355l-168 6v69l349 76l28 -16l8 -183q156 211 371 211q240 0 305 -213q88 113 180.5 163t198.5 50q168 0 253 -96.5t85 -304.5v-242q0 -157 4 -391z" />
    <glyph glyph-name="uniEA75" unicode="&#xff4e;" 
d="M1561 92l180 -16v-76h-576v76l176 16q5 293 5 391v213q0 159 -54.5 226t-175.5 67q-195 0 -383 -164v-342q0 -272 2 -391l178 -16v-76h-577v76l182 18q4 234 4 389v125q0 196 -6 355l-178 6v69l354 76l31 -16l8 -193q122 125 235.5 173t243.5 48q346 0 346 -399v-244
q0 -99 5 -391z" />
    <glyph glyph-name="uniEA76" unicode="&#xff4f;" 
d="M1024 -37q-170 0 -305 67.5t-215 201.5t-80 315q0 136 48.5 247t131 183t190.5 110.5t230 38.5t230 -38.5t190.5 -110.5t131 -183t48.5 -247q0 -181 -80 -315t-215 -201.5t-305 -67.5zM1024 43q174 0 273.5 130.5t99.5 369.5q0 240 -99.5 372t-273.5 132t-273.5 -132
t-99.5 -372q0 -239 99.5 -369.5t273.5 -130.5z" />
    <glyph glyph-name="uniEA77" unicode="&#xff50;" 
d="M754 877v-680q135 -115 307 -115q164 0 266.5 126.5t102.5 342.5q0 219 -100.5 338t-270.5 119q-157 0 -305 -131zM743 1100l7 -150q161 176 399 176q106 0 198 -38.5t160.5 -110t108 -181t39.5 -243.5q0 -137 -41.5 -249t-114 -186.5t-171 -114.5t-212.5 -40
q-220 0 -364 160v-162q0 -276 2 -401l260 -21v-80h-688v80l215 19q2 125 2 403v647q0 199 -6 355l-199 6v69l375 76z" />
    <glyph glyph-name="uniEA78" unicode="&#xff51;" 
d="M1307 215v690q-124 105 -291 105q-170 0 -277.5 -126.5t-107.5 -338.5q0 -222 100 -342.5t270 -120.5q165 0 306 133zM1524 -442l211 -19v-80h-672v80l244 21q4 254 4 383v192q-158 -172 -396 -172q-222 0 -365.5 154.5t-143.5 423.5q0 134 43.5 245t119 185t176.5 114.5
t216 40.5q234 0 378 -165l131 149l56 -12l-6 -307v-848q0 -131 4 -385z" />
    <glyph glyph-name="uniEA79" unicode="&#xff52;" 
d="M1010 1098l8 -275q71 138 185 220.5t227 82.5q74 0 126 -23t74 -65q0 -58 -35 -93.5t-96 -35.5q-71 0 -164 56l-41 24q-151 -60 -276 -250v-256q0 -147 4 -385l272 -22v-76h-712v76l223 22q4 234 4 385v125q0 222 -8 355l-205 6v78l385 67z" />
    <glyph glyph-name="uniEA7A" unicode="&#xff53;" 
d="M961 668l239 -45q171 -37 245.5 -117t74.5 -203q0 -156 -137 -248t-398 -92q-251 0 -473 111v260h125l41 -234q136 -57 326 -57q152 0 237.5 54.5t85.5 150.5q0 74 -54.5 125t-197.5 80l-221 45q-313 65 -313 309q0 148 126.5 233.5t368.5 85.5q205 0 418 -94l-14 -227
h-125l-37 196q-116 46 -256 46q-142 0 -220.5 -50t-78.5 -133q0 -72 53.5 -120t184.5 -76z" />
    <glyph glyph-name="uniEA7B" unicode="&#xff54;" 
d="M1434 166l34 -60q-150 -143 -366 -143q-191 0 -279 94t-86 281q0 24 1 76.5t1 93.5v487h-229v78l233 17l74 340h139l-6 -340h412v-119l-412 20v-626q0 -143 53.5 -208t161.5 -65q79 0 140 18t129 56z" />
    <glyph glyph-name="uniEA7C" unicode="&#xff55;" 
d="M1528 94l190 -18v-76l-401 -14v209q-198 -232 -432 -232q-98 0 -169 22.5t-123 74t-77 138.5t-24 212l6 577l-195 12v72l381 33l29 -25l-8 -323v-357q0 -156 67 -225.5t197 -69.5q175 0 348 177v706l-195 12v68l385 37l29 -25l-8 -323v-662z" />
    <glyph glyph-name="uniEA7D" unicode="&#xff56;" 
d="M1737 1090v-74l-181 -17l-466 -1011h-119l-459 1007l-193 21v74h613v-74l-189 -21l355 -815l354 819l-188 17v74h473z" />
    <glyph glyph-name="uniEA7E" unicode="&#xff57;" 
d="M1989 1090v-76l-174 -21l-369 -1005h-105l-313 864l-309 -864h-107l-376 1007l-175 19v76h582v-76l-180 -17l260 -751l266 749l-188 19v76h563v-76l-178 -17l266 -751l264 747l-178 21v76h451z" />
    <glyph glyph-name="uniEA7F" unicode="&#xff58;" 
d="M1710 76l2 -76h-596v76l150 16l-289 367l-311 -367l157 -16v-76h-483v76l209 18l383 422l-371 479l-184 19l-2 76h586v-76l-148 -15l262 -335l279 331l-148 19v76h469v-76l-209 -19l-346 -389l406 -512z" />
    <glyph glyph-name="uniEA80" unicode="&#xff59;" 
d="M1782 1090v-74l-195 -19l-526 -1153q-99 -214 -216.5 -308.5t-279.5 -94.5q-91 0 -152 31.5t-67 85.5q13 33 41.5 50t63.5 17q40 0 72 -9t73 -38l82 -49q104 40 174.5 116.5t134.5 219.5l31 69l-490 1059l-206 23v74h624v-74l-188 -21l360 -835l367 839l-191 17v74h488z
" />
    <glyph glyph-name="uniEA81" unicode="&#xff5a;" 
d="M1460 348h117l-18 -348h-1059v66l800 950h-622l-51 -250l-117 8l16 316h1026v-66l-788 -948h641z" />
  </font>
</defs>
</svg>
